<?xml version="1.0" standalone="no"?>
<!DOCTYPE svg PUBLIC "-//W3C//DTD SVG 20010904//EN"
 "http://www.w3.org/TR/2001/REC-SVG-20010904/DTD/svg10.dtd">
<svg version="1.0" xmlns="http://www.w3.org/2000/svg"
 width="328.000000pt" height="328.000000pt" viewBox="0 0 328.000000 328.000000"
 preserveAspectRatio="xMidYMid meet">
<metadata>
Created by potrace 1.14, written by Peter Selinger 2001-2017
</metadata>
<g transform="translate(0.000000,328.000000) scale(0.100000,-0.100000)"
fill="#000000" stroke="none">
<path d="M985 2923 c-30 -8 -46 -24 -66 -68 -17 -36 -19 -71 -19 -326 0 -300
-10 -521 -36 -824 -14 -168 -52 -507 -57 -510 -1 -1 -67 -19 -145 -40 -159
-43 -214 -73 -238 -130 -40 -98 12 -195 130 -240 74 -28 119 -3 135 77 6 27
13 34 41 39 19 4 36 6 37 5 2 -1 -3 -37 -11 -80 -7 -43 -10 -92 -6 -110 20
-90 97 -126 142 -66 11 15 28 76 42 149 13 68 29 127 36 131 7 4 51 10 98 14
48 4 119 9 158 12 l70 6 13 -58 c7 -33 40 -171 73 -307 66 -272 82 -307 139
-307 62 0 109 56 109 129 0 23 -29 155 -65 294 -36 139 -65 256 -65 259 0 3
16 15 35 27 61 36 84 133 49 207 -16 34 -80 74 -120 74 -10 0 -25 4 -32 9 -21
13 -135 518 -278 1226 -36 182 -73 344 -81 361 -11 24 -55 59 -66 53 -1 -1
-11 -4 -22 -6z m176 -1402 c33 -134 58 -245 57 -246 -8 -7 -200 -37 -205 -32
-3 3 4 88 16 189 18 162 39 376 42 433 1 22 6 5 90 -344z"/>
<path d="M2377 2844 c-14 -14 -28 -38 -31 -52 -15 -68 -26 -379 -26 -709 l0
-361 -107 -7 c-60 -3 -125 -8 -145 -11 l-38 -6 0 414 c-1 227 -5 432 -9 456
-20 103 -121 127 -168 39 -15 -28 -18 -81 -24 -452 -4 -231 -7 -434 -8 -451
-1 -30 -3 -31 -68 -43 -38 -7 -97 -23 -133 -34 -53 -18 -68 -28 -85 -57 -37
-65 -18 -192 35 -220 13 -7 47 -7 107 0 48 5 100 10 115 10 l27 0 -2 -187 c-2
-207 6 -254 51 -303 37 -40 71 -47 104 -20 41 31 60 131 66 339 l5 174 133 -5
c74 -3 137 -8 140 -11 4 -4 10 -199 13 -434 6 -407 7 -430 27 -474 31 -68 59
-89 114 -89 37 0 51 5 73 28 57 59 60 83 53 462 -4 190 -9 377 -12 417 l-7 72
34 14 c40 17 74 51 88 90 16 41 13 143 -4 177 -16 32 -67 74 -102 84 -27 8
-28 26 -43 481 -9 300 -18 431 -36 583 -12 100 -80 143 -137 86z"/>
</g>
</svg>
